<?xml version="1.0" encoding="UTF-8"?>
<svg xmlns="http://www.w3.org/2000/svg" xmlns:xlink="http://www.w3.org/1999/xlink" viewBox="0 0 240 240" width="240px" height="240px">
<g id="surface15068699">
<path style=" stroke:none;fill-rule:nonzero;fill:rgb(98.431373%,75.294119%,17.647059%);fill-opacity:1;" d="M 234.398438 97.152344 L 225 97.152344 L 225 96.667969 L 120 96.667969 L 120 143.332031 L 185.933594 143.332031 C 176.316406 170.5 150.46875 190 120 190 C 81.34375 190 50 158.65625 50 120 C 50 81.34375 81.34375 50 120 50 C 137.84375 50 154.078125 56.730469 166.441406 67.726562 L 199.4375 34.726562 C 178.601562 15.308594 150.730469 3.332031 120 3.332031 C 55.570312 3.332031 3.332031 55.570312 3.332031 120 C 3.332031 184.429688 55.570312 236.667969 120 236.667969 C 184.429688 236.667969 236.667969 184.429688 236.667969 120 C 236.667969 112.179688 235.863281 104.542969 234.398438 97.152344 Z M 234.398438 97.152344 "/>
<path style=" stroke:none;fill-rule:nonzero;fill:rgb(89.803922%,22.352941%,20.784314%);fill-opacity:1;" d="M 16.785156 65.699219 L 55.117188 93.808594 C 65.488281 68.128906 90.605469 50 120 50 C 137.84375 50 154.078125 56.730469 166.441406 67.726562 L 199.4375 34.726562 C 178.601562 15.308594 150.730469 3.332031 120 3.332031 C 75.1875 3.332031 36.328125 28.632812 16.785156 65.699219 Z M 16.785156 65.699219 "/>
<path style=" stroke:none;fill-rule:nonzero;fill:rgb(29.803923%,68.627453%,31.37255%);fill-opacity:1;" d="M 120 236.667969 C 150.136719 236.667969 177.515625 225.132812 198.21875 206.378906 L 162.109375 175.824219 C 150.398438 184.699219 135.835938 190 120 190 C 89.65625 190 63.890625 170.652344 54.183594 143.648438 L 16.136719 172.960938 C 35.445312 210.742188 74.65625 236.667969 120 236.667969 Z M 120 236.667969 "/>
<path style=" stroke:none;fill-rule:nonzero;fill:rgb(8.235294%,39.607844%,75.294119%);fill-opacity:1;" d="M 234.398438 97.152344 L 234.304688 96.667969 L 120 96.667969 L 120 143.332031 L 185.933594 143.332031 C 181.316406 156.382812 172.921875 167.636719 162.09375 175.832031 C 162.097656 175.824219 162.105469 175.824219 162.109375 175.820312 L 198.21875 206.375 C 195.664062 208.695312 236.667969 178.332031 236.667969 120 C 236.667969 112.179688 235.863281 104.542969 234.398438 97.152344 Z M 234.398438 97.152344 "/>
</g>
</svg>
